<svg width="67" height="15" viewBox="0 0 67 15" fill="none" xmlns="http://www.w3.org/2000/svg">
<g clip-path="url(#clip0_0_277)">
<path d="M19.2956 6.76385V9.1795H18.4819V6.13319H19.2449L19.2956 6.76385ZM19.183 7.54936H18.9577C18.9577 7.33726 18.9831 7.14206 19.0338 6.96375C19.0863 6.78356 19.1623 6.62777 19.2618 6.49638C19.3632 6.36312 19.488 6.25989 19.6363 6.18668C19.7845 6.11348 19.9563 6.07688 20.1515 6.07688C20.2866 6.07688 20.4105 6.09753 20.5231 6.13882C20.6357 6.17824 20.7324 6.24112 20.8131 6.32746C20.8957 6.41192 20.9595 6.52266 21.0046 6.65968C21.0496 6.79482 21.0721 6.95718 21.0721 7.14675V9.1795H20.2613V7.23685C20.2613 7.09795 20.2425 6.99096 20.205 6.91588C20.1674 6.84081 20.1139 6.78825 20.0445 6.75822C19.9769 6.72819 19.8953 6.71317 19.7996 6.71317C19.6944 6.71317 19.6025 6.73476 19.5236 6.77793C19.4467 6.8211 19.3829 6.88116 19.3322 6.95812C19.2815 7.03319 19.244 7.12141 19.2196 7.22277C19.1952 7.32412 19.183 7.43299 19.183 7.54936ZM20.9961 7.45645L20.7061 7.49305C20.7061 7.29409 20.7305 7.10921 20.7793 6.93841C20.83 6.7676 20.9041 6.61745 21.0017 6.48794C21.1012 6.35843 21.2242 6.25801 21.3706 6.18668C21.517 6.11348 21.6859 6.07688 21.8774 6.07688C22.0238 6.07688 22.157 6.09847 22.2771 6.14164C22.3973 6.18293 22.4996 6.24956 22.584 6.34153C22.6704 6.43163 22.7361 6.54988 22.7811 6.69628C22.828 6.84268 22.8515 7.02193 22.8515 7.23403V9.1795H22.0378V7.23403C22.0378 7.09326 22.0191 6.98627 21.9815 6.91307C21.9459 6.83799 21.8933 6.78637 21.8239 6.75822C21.7563 6.72819 21.6756 6.71317 21.5817 6.71317C21.4841 6.71317 21.3987 6.73288 21.3255 6.7723C21.2523 6.80984 21.1913 6.86239 21.1425 6.92996C21.0937 6.99753 21.0571 7.07636 21.0327 7.16646C21.0083 7.25468 20.9961 7.35134 20.9961 7.45645ZM25.1236 8.49254V7.13549C25.1236 7.03789 25.1076 6.95436 25.0757 6.88491C25.0438 6.81359 24.9941 6.75822 24.9265 6.7188C24.8608 6.67939 24.7754 6.65968 24.6703 6.65968C24.5802 6.65968 24.5023 6.67563 24.4366 6.70754C24.3709 6.73757 24.3202 6.78168 24.2846 6.83987C24.2489 6.89618 24.2311 6.96281 24.2311 7.03976H23.4202C23.4202 6.91025 23.4503 6.78731 23.5103 6.67094C23.5704 6.55457 23.6577 6.45227 23.7721 6.36406C23.8866 6.27396 24.0227 6.20358 24.1804 6.1529C24.3399 6.10222 24.5182 6.07688 24.7153 6.07688C24.9518 6.07688 25.162 6.1163 25.346 6.19513C25.5299 6.27396 25.6745 6.39221 25.7796 6.54988C25.8866 6.70754 25.94 6.90462 25.94 7.14112V8.44467C25.94 8.61172 25.9504 8.74874 25.971 8.85573C25.9917 8.96084 26.0217 9.05281 26.0611 9.13164V9.1795H25.2418C25.2024 9.09692 25.1724 8.99368 25.1517 8.86981C25.1329 8.74405 25.1236 8.61829 25.1236 8.49254ZM25.2306 7.32412L25.2362 7.78304H24.7829C24.6759 7.78304 24.583 7.79524 24.5042 7.81964C24.4253 7.84404 24.3606 7.87877 24.3099 7.92381C24.2592 7.96698 24.2217 8.01766 24.1973 8.07585C24.1748 8.13403 24.1635 8.19785 24.1635 8.2673C24.1635 8.33675 24.1795 8.39963 24.2114 8.45593C24.2433 8.51037 24.2893 8.55354 24.3493 8.58544C24.4094 8.61548 24.4798 8.63049 24.5605 8.63049C24.6825 8.63049 24.7885 8.60609 24.8786 8.55729C24.9687 8.50849 25.0382 8.44843 25.087 8.3771C25.1376 8.30578 25.1639 8.23821 25.1658 8.17439L25.3798 8.51787C25.3497 8.59483 25.3084 8.6746 25.2559 8.75719C25.2052 8.83977 25.1405 8.91767 25.0616 8.99087C24.9828 9.06219 24.888 9.12132 24.7773 9.16824C24.6665 9.21329 24.5351 9.23581 24.3831 9.23581C24.1898 9.23581 24.0143 9.19734 23.8566 9.12038C23.7008 9.04155 23.5769 8.93362 23.485 8.7966C23.3949 8.65771 23.3498 8.50004 23.3498 8.32361C23.3498 8.16407 23.3799 8.02236 23.4399 7.89848C23.5 7.7746 23.5882 7.67042 23.7046 7.58596C23.8228 7.49962 23.9702 7.43487 24.1466 7.3917C24.323 7.34665 24.5276 7.32412 24.7604 7.32412H25.2306ZM27.359 6.78356V9.1795H26.5482V6.13319H27.3084L27.359 6.78356ZM27.2408 7.54936H27.0212C27.0212 7.32412 27.0503 7.12141 27.1085 6.94122C27.1666 6.75916 27.2483 6.60431 27.3534 6.47667C27.4585 6.34716 27.5833 6.24862 27.7279 6.18105C27.8743 6.1116 28.0376 6.07688 28.2177 6.07688C28.3604 6.07688 28.4908 6.09753 28.6091 6.13882C28.7273 6.18011 28.8287 6.24581 28.9132 6.3359C28.9995 6.426 29.0652 6.54518 29.1102 6.69346C29.1572 6.84174 29.1806 7.02287 29.1806 7.23685V9.1795H28.3641V7.23403C28.3641 7.09889 28.3454 6.99378 28.3078 6.9187C28.2703 6.84362 28.2149 6.79107 28.1417 6.76103C28.0704 6.72913 27.9822 6.71317 27.8771 6.71317C27.7682 6.71317 27.6734 6.73476 27.5927 6.77793C27.5139 6.8211 27.4482 6.88116 27.3956 6.95812C27.345 7.03319 27.3065 7.12141 27.2802 7.22277C27.2539 7.32412 27.2408 7.43299 27.2408 7.54936ZM31.7258 6.13319H32.4606V9.07815C32.4606 9.35594 32.3987 9.5915 32.2748 9.78483C32.1528 9.98003 31.982 10.1274 31.7624 10.2269C31.5428 10.3282 31.2875 10.3789 30.9966 10.3789C30.869 10.3789 30.7338 10.362 30.5912 10.3282C30.4504 10.2944 30.3153 10.2419 30.1857 10.1705C30.0581 10.0992 29.9511 10.0091 29.8648 9.90026L30.2223 9.42163C30.3162 9.5305 30.4251 9.61496 30.5489 9.67502C30.6728 9.73696 30.8098 9.76793 30.96 9.76793C31.1064 9.76793 31.2303 9.74072 31.3316 9.68628C31.433 9.63373 31.5109 9.55584 31.5653 9.4526C31.6197 9.35125 31.647 9.22831 31.647 9.08378V6.83705L31.7258 6.13319ZM29.6761 7.69295V7.63382C29.6761 7.40108 29.7043 7.18992 29.7606 7.00035C29.8188 6.8089 29.9004 6.64466 30.0056 6.50764C30.1125 6.37063 30.242 6.26458 30.3941 6.1895C30.5461 6.11442 30.7179 6.07688 30.9093 6.07688C31.112 6.07688 31.2819 6.11442 31.4189 6.1895C31.5559 6.26458 31.6685 6.37156 31.7568 6.51046C31.845 6.64748 31.9135 6.80984 31.9623 6.99753C32.013 7.18335 32.0524 7.387 32.0805 7.60848V7.738C32.0524 7.95009 32.0102 8.14717 31.9538 8.32924C31.8975 8.5113 31.8234 8.67085 31.7314 8.80787C31.6394 8.94301 31.525 9.04812 31.3879 9.1232C31.2528 9.19827 31.0914 9.23581 30.9037 9.23581C30.716 9.23581 30.5461 9.19734 30.3941 9.12038C30.2439 9.04342 30.1154 8.9355 30.0084 8.7966C29.9014 8.65771 29.8188 8.49441 29.7606 8.30672C29.7043 8.11902 29.6761 7.91443 29.6761 7.69295ZM30.487 7.63382V7.69295C30.487 7.8187 30.4992 7.93601 30.5236 8.04488C30.548 8.15374 30.5855 8.25041 30.6362 8.33487C30.6888 8.41746 30.7535 8.48221 30.8305 8.52914C30.9093 8.57418 31.0022 8.59671 31.1092 8.59671C31.2575 8.59671 31.3786 8.56574 31.4724 8.5038C31.5662 8.43998 31.6366 8.3527 31.6836 8.24196C31.7305 8.13122 31.7577 8.00359 31.7652 7.85906V7.49024C31.7615 7.37199 31.7455 7.26594 31.7173 7.17209C31.6892 7.07636 31.6498 6.99472 31.5991 6.92715C31.5484 6.85958 31.4827 6.80702 31.402 6.76948C31.3213 6.73194 31.2256 6.71317 31.1148 6.71317C31.0079 6.71317 30.9149 6.73757 30.8361 6.78637C30.7592 6.8333 30.6944 6.89805 30.6418 6.98064C30.5912 7.06323 30.5527 7.16083 30.5264 7.27345C30.5001 7.38419 30.487 7.50431 30.487 7.63382ZM34.3498 8.60234C34.4493 8.60234 34.5375 8.58357 34.6144 8.54603C34.6914 8.50661 34.7515 8.45218 34.7946 8.38273C34.8397 8.31141 34.8631 8.22788 34.865 8.13216H35.628C35.6261 8.34613 35.5689 8.53664 35.4563 8.70369C35.3436 8.86887 35.1925 8.99932 35.003 9.09504C34.8134 9.18889 34.6013 9.23581 34.3667 9.23581C34.1302 9.23581 33.9237 9.1964 33.7473 9.11756C33.5727 9.03873 33.4273 8.92987 33.3109 8.79097C33.1945 8.6502 33.1072 8.4869 33.049 8.30108C32.9909 8.11339 32.9618 7.91255 32.9618 7.69858V7.61693C32.9618 7.40108 32.9909 7.20024 33.049 7.01443C33.1072 6.82673 33.1945 6.66343 33.3109 6.52454C33.4273 6.38376 33.5727 6.27396 33.7473 6.19513C33.9218 6.1163 34.1264 6.07688 34.361 6.07688C34.6107 6.07688 34.8294 6.12474 35.017 6.22047C35.2066 6.31619 35.3549 6.45321 35.4619 6.63152C35.5708 6.80796 35.6261 7.01724 35.628 7.25937H34.865C34.8631 7.15801 34.8416 7.06604 34.8003 6.98346C34.7608 6.90087 34.7027 6.83517 34.6257 6.78637C34.5506 6.7357 34.4577 6.71036 34.347 6.71036C34.2287 6.71036 34.1321 6.7357 34.057 6.78637C33.9819 6.83517 33.9237 6.90275 33.8824 6.98909C33.8411 7.07355 33.812 7.17021 33.7951 7.27908C33.7801 7.38606 33.7726 7.49868 33.7726 7.61693V7.69858C33.7726 7.81683 33.7801 7.93038 33.7951 8.03925C33.8102 8.14811 33.8383 8.24478 33.8796 8.32924C33.9228 8.4137 33.9819 8.48033 34.057 8.52914C34.1321 8.57794 34.2297 8.60234 34.3498 8.60234ZM35.9687 7.68732V7.62819C35.9687 7.40483 36.0006 7.19931 36.0644 7.01161C36.1282 6.82204 36.2211 6.6578 36.3431 6.51891C36.4651 6.38001 36.6153 6.27209 36.7936 6.19513C36.9719 6.1163 37.1765 6.07688 37.4074 6.07688C37.6382 6.07688 37.8438 6.1163 38.0239 6.19513C38.2041 6.27209 38.3552 6.38001 38.4772 6.51891C38.6011 6.6578 38.695 6.82204 38.7588 7.01161C38.8226 7.19931 38.8545 7.40483 38.8545 7.62819V7.68732C38.8545 7.9088 38.8226 8.11433 38.7588 8.3039C38.695 8.4916 38.6011 8.65583 38.4772 8.7966C38.3552 8.9355 38.2051 9.04342 38.0268 9.12038C37.8485 9.19734 37.6439 9.23581 37.413 9.23581C37.1821 9.23581 36.9766 9.19734 36.7964 9.12038C36.6181 9.04342 36.467 8.9355 36.3431 8.7966C36.2211 8.65583 36.1282 8.4916 36.0644 8.3039C36.0006 8.11433 35.9687 7.9088 35.9687 7.68732ZM36.7795 7.62819V7.68732C36.7795 7.81495 36.7908 7.93414 36.8133 8.04488C36.8358 8.15562 36.8715 8.25322 36.9203 8.33769C36.971 8.42027 37.0367 8.48503 37.1174 8.53195C37.1981 8.57888 37.2966 8.60234 37.413 8.60234C37.5256 8.60234 37.6223 8.57888 37.703 8.53195C37.7837 8.48503 37.8485 8.42027 37.8973 8.33769C37.9461 8.25322 37.9817 8.15562 38.0042 8.04488C38.0286 7.93414 38.0408 7.81495 38.0408 7.68732V7.62819C38.0408 7.50431 38.0286 7.38794 38.0042 7.27908C37.9817 7.16834 37.9451 7.07073 37.8944 6.98627C37.8456 6.89993 37.7809 6.83236 37.7002 6.78356C37.6195 6.73476 37.5219 6.71036 37.4074 6.71036C37.2929 6.71036 37.1953 6.73476 37.1146 6.78356C37.0357 6.83236 36.971 6.89993 36.9203 6.98627C36.8715 7.07073 36.8358 7.16834 36.8133 7.27908C36.7908 7.38794 36.7795 7.50431 36.7795 7.62819ZM41.1519 8.51506V4.85498H41.9684V9.1795H41.2336L41.1519 8.51506ZM39.2261 7.69295V7.63382C39.2261 7.40108 39.2524 7.18992 39.305 7.00035C39.3575 6.8089 39.4345 6.64466 39.5358 6.50764C39.6372 6.37063 39.762 6.26458 39.9103 6.1895C40.0586 6.11442 40.2275 6.07688 40.4171 6.07688C40.5954 6.07688 40.7512 6.11442 40.8844 6.1895C41.0196 6.26458 41.1341 6.37156 41.2279 6.51046C41.3237 6.64748 41.4006 6.80984 41.4588 6.99753C41.517 7.18335 41.5592 7.387 41.5855 7.60848V7.738C41.5592 7.95009 41.517 8.14717 41.4588 8.32924C41.4006 8.5113 41.3237 8.67085 41.2279 8.80787C41.1341 8.94301 41.0196 9.04812 40.8844 9.1232C40.7493 9.19827 40.5916 9.23581 40.4114 9.23581C40.2219 9.23581 40.0529 9.19734 39.9047 9.12038C39.7583 9.04342 39.6344 8.9355 39.533 8.7966C39.4335 8.65771 39.3575 8.49441 39.305 8.30672C39.2524 8.11902 39.2261 7.91443 39.2261 7.69295ZM40.037 7.63382V7.69295C40.037 7.8187 40.0464 7.93601 40.0651 8.04488C40.0858 8.15374 40.1186 8.25041 40.1637 8.33487C40.2106 8.41746 40.2707 8.48221 40.3439 8.52914C40.419 8.57418 40.51 8.59671 40.617 8.59671C40.7559 8.59671 40.8704 8.56574 40.9605 8.5038C41.0506 8.43998 41.1191 8.3527 41.166 8.24196C41.2148 8.13122 41.2429 8.00359 41.2504 7.85906V7.49024C41.2448 7.37199 41.2279 7.26594 41.1998 7.17209C41.1735 7.07636 41.1341 6.99472 41.0815 6.92715C41.0308 6.85958 40.967 6.80702 40.8901 6.76948C40.815 6.73194 40.7258 6.71317 40.6226 6.71317C40.5175 6.71317 40.4274 6.73757 40.3523 6.78637C40.2772 6.8333 40.2162 6.89805 40.1693 6.98064C40.1243 7.06323 40.0905 7.16083 40.068 7.27345C40.0473 7.38419 40.037 7.50431 40.037 7.63382ZM43.4578 6.13319V9.1795H42.6441V6.13319H43.4578ZM42.5934 5.33923C42.5934 5.22098 42.6347 5.12338 42.7173 5.04643C42.7999 4.96947 42.9106 4.93099 43.0495 4.93099C43.1865 4.93099 43.2963 4.96947 43.3789 5.04643C43.4634 5.12338 43.5056 5.22098 43.5056 5.33923C43.5056 5.45748 43.4634 5.55508 43.3789 5.63204C43.2963 5.709 43.1865 5.74747 43.0495 5.74747C42.9106 5.74747 42.7999 5.709 42.7173 5.63204C42.6347 5.55508 42.5934 5.45748 42.5934 5.33923ZM44.9218 6.78356V9.1795H44.1109V6.13319H44.8711L44.9218 6.78356ZM44.8035 7.54936H44.5839C44.5839 7.32412 44.613 7.12141 44.6712 6.94122C44.7294 6.75916 44.8111 6.60431 44.9162 6.47667C45.0213 6.34716 45.1461 6.24862 45.2906 6.18105C45.437 6.1116 45.6003 6.07688 45.7805 6.07688C45.9232 6.07688 46.0536 6.09753 46.1719 6.13882C46.2901 6.18011 46.3915 6.24581 46.4759 6.3359C46.5623 6.426 46.628 6.54518 46.673 6.69346C46.7199 6.84174 46.7434 7.02287 46.7434 7.23685V9.1795H45.9269V7.23403C45.9269 7.09889 45.9081 6.99378 45.8706 6.9187C45.8331 6.84362 45.7777 6.79107 45.7045 6.76103C45.6332 6.72913 45.5449 6.71317 45.4398 6.71317C45.331 6.71317 45.2362 6.73476 45.1555 6.77793C45.0766 6.8211 45.0109 6.88116 44.9584 6.95812C44.9077 7.03319 44.8692 7.12141 44.843 7.22277C44.8167 7.32412 44.8035 7.43299 44.8035 7.54936ZM49.2886 6.13319H50.0234V9.07815C50.0234 9.35594 49.9614 9.5915 49.8376 9.78483C49.7156 9.98003 49.5448 10.1274 49.3252 10.2269C49.1055 10.3282 48.8503 10.3789 48.5594 10.3789C48.4317 10.3789 48.2966 10.362 48.1539 10.3282C48.0132 10.2944 47.878 10.2419 47.7485 10.1705C47.6209 10.0992 47.5139 10.0091 47.4275 9.90026L47.7851 9.42163C47.879 9.5305 47.9878 9.61496 48.1117 9.67502C48.2356 9.73696 48.3726 9.76793 48.5228 9.76793C48.6692 9.76793 48.793 9.74072 48.8944 9.68628C48.9957 9.63373 49.0736 9.55584 49.1281 9.4526C49.1825 9.35125 49.2097 9.22831 49.2097 9.08378V6.83705L49.2886 6.13319ZM47.2389 7.69295V7.63382C47.2389 7.40108 47.2671 7.18992 47.3234 7.00035C47.3816 6.8089 47.4632 6.64466 47.5683 6.50764C47.6753 6.37063 47.8048 6.26458 47.9568 6.1895C48.1089 6.11442 48.2806 6.07688 48.4721 6.07688C48.6748 6.07688 48.8447 6.11442 48.9817 6.1895C49.1187 6.26458 49.2313 6.37156 49.3195 6.51046C49.4077 6.64748 49.4762 6.80984 49.5251 6.99753C49.5757 7.18335 49.6151 7.387 49.6433 7.60848V7.738C49.6151 7.95009 49.5729 8.14717 49.5166 8.32924C49.4603 8.5113 49.3862 8.67085 49.2942 8.80787C49.2022 8.94301 49.0877 9.04812 48.9507 9.1232C48.8156 9.19827 48.6541 9.23581 48.4664 9.23581C48.2787 9.23581 48.1089 9.19734 47.9568 9.12038C47.8067 9.04342 47.6781 8.9355 47.5711 8.7966C47.4641 8.65771 47.3816 8.49441 47.3234 8.30672C47.2671 8.11902 47.2389 7.91443 47.2389 7.69295ZM48.0498 7.63382V7.69295C48.0498 7.8187 48.062 7.93601 48.0864 8.04488C48.1108 8.15374 48.1483 8.25041 48.199 8.33487C48.2515 8.41746 48.3163 8.48221 48.3932 8.52914C48.4721 8.57418 48.565 8.59671 48.672 8.59671C48.8203 8.59671 48.9413 8.56574 49.0352 8.5038C49.129 8.43998 49.1994 8.3527 49.2463 8.24196C49.2932 8.13122 49.3205 8.00359 49.328 7.85906V7.49024C49.3242 7.37199 49.3083 7.26594 49.2801 7.17209C49.252 7.07636 49.2125 6.99472 49.1619 6.92715C49.1112 6.85958 49.0455 6.80702 48.9648 6.76948C48.8841 6.73194 48.7883 6.71317 48.6776 6.71317C48.5706 6.71317 48.4777 6.73757 48.3989 6.78637C48.3219 6.8333 48.2572 6.89805 48.2046 6.98064C48.1539 7.06323 48.1155 7.16083 48.0892 7.27345C48.0629 7.38419 48.0498 7.50431 48.0498 7.63382ZM54.2747 8.10682C54.2747 8.03362 54.2634 7.96792 54.2409 7.90974C54.2203 7.84967 54.1809 7.79524 54.1227 7.74644C54.0645 7.69576 53.9828 7.64602 53.8777 7.59722C53.7726 7.54842 53.6365 7.49774 53.4695 7.44519C53.2837 7.38513 53.1072 7.31755 52.9402 7.24248C52.775 7.1674 52.6286 7.08012 52.501 6.98064C52.3752 6.87928 52.2757 6.76197 52.2025 6.62871C52.1312 6.49544 52.0956 6.34059 52.0956 6.16416C52.0956 5.99336 52.1331 5.83851 52.2082 5.69961C52.2832 5.55884 52.3884 5.43871 52.5235 5.33923C52.6586 5.23788 52.8182 5.15998 53.0021 5.10555C53.1879 5.05112 53.3916 5.0239 53.6131 5.0239C53.9153 5.0239 54.179 5.07834 54.4042 5.1872C54.6295 5.29606 54.804 5.44528 54.9279 5.63486C55.0536 5.82443 55.1165 6.04122 55.1165 6.28522H54.2775C54.2775 6.1651 54.2522 6.05999 54.2015 5.96989C54.1527 5.87792 54.0776 5.80566 53.9763 5.7531C53.8768 5.70055 53.751 5.67427 53.599 5.67427C53.4526 5.67427 53.3306 5.6968 53.233 5.74184C53.1354 5.78501 53.0622 5.84414 53.0134 5.91922C52.9646 5.99242 52.9402 6.075 52.9402 6.16698C52.9402 6.23642 52.9571 6.2993 52.9909 6.35561C53.0265 6.41192 53.0791 6.46447 53.1485 6.51328C53.218 6.56208 53.3034 6.60806 53.4047 6.65123C53.5061 6.6944 53.6234 6.73663 53.7567 6.77793C53.98 6.8455 54.1762 6.92152 54.3451 7.00598C54.5159 7.09044 54.6585 7.18523 54.773 7.29034C54.8875 7.39545 54.9739 7.51464 55.0321 7.6479C55.0902 7.78117 55.1193 7.93226 55.1193 8.10119C55.1193 8.2795 55.0846 8.43904 55.0152 8.57981C54.9457 8.72059 54.8453 8.83977 54.7139 8.93738C54.5825 9.03498 54.4258 9.10912 54.2437 9.1598C54.0617 9.21047 53.858 9.23581 53.6328 9.23581C53.4301 9.23581 53.2302 9.20954 53.0331 9.15698C52.836 9.10255 52.6568 9.0209 52.4953 8.91204C52.3358 8.80317 52.2082 8.66428 52.1124 8.49535C52.0167 8.32642 51.9689 8.12653 51.9689 7.89566H52.8163C52.8163 8.02329 52.836 8.13122 52.8754 8.21944C52.9148 8.30765 52.9702 8.37898 53.0415 8.43341C53.1147 8.48784 53.2011 8.52726 53.3006 8.55166C53.4019 8.57606 53.5127 8.58826 53.6328 8.58826C53.7792 8.58826 53.8993 8.56761 53.9932 8.52632C54.0889 8.48503 54.1593 8.42778 54.2043 8.35458C54.2512 8.28138 54.2747 8.19879 54.2747 8.10682ZM57.1352 6.13319V6.70754H55.3615V6.13319H57.1352ZM55.8007 5.38147H56.6115V8.26167C56.6115 8.34989 56.6228 8.41746 56.6453 8.46438C56.6697 8.5113 56.7054 8.54415 56.7523 8.56292C56.7992 8.57981 56.8584 8.58826 56.9297 8.58826C56.9804 8.58826 57.0254 8.58638 57.0648 8.58263C57.1061 8.577 57.1408 8.57137 57.169 8.56574L57.1718 9.16261C57.1024 9.18514 57.0273 9.20297 56.9466 9.21611C56.8659 9.22924 56.7767 9.23581 56.6791 9.23581C56.5008 9.23581 56.345 9.20672 56.2117 9.14853C56.0804 9.08847 55.979 8.99275 55.9077 8.86136C55.8363 8.72997 55.8007 8.55729 55.8007 8.34332V5.38147ZM57.3942 7.68732V7.62819C57.3942 7.40483 57.4261 7.19931 57.4899 7.01161C57.5538 6.82204 57.6467 6.6578 57.7687 6.51891C57.8907 6.38001 58.0408 6.27209 58.2192 6.19513C58.3975 6.1163 58.6021 6.07688 58.8329 6.07688C59.0638 6.07688 59.2693 6.1163 59.4495 6.19513C59.6297 6.27209 59.7808 6.38001 59.9028 6.51891C60.0267 6.6578 60.1205 6.82204 60.1843 7.01161C60.2481 7.19931 60.2801 7.40483 60.2801 7.62819V7.68732C60.2801 7.9088 60.2481 8.11433 60.1843 8.3039C60.1205 8.4916 60.0267 8.65583 59.9028 8.7966C59.7808 8.9355 59.6306 9.04342 59.4523 9.12038C59.274 9.19734 59.0694 9.23581 58.8385 9.23581C58.6077 9.23581 58.4022 9.19734 58.222 9.12038C58.0437 9.04342 57.8926 8.9355 57.7687 8.7966C57.6467 8.65583 57.5538 8.4916 57.4899 8.3039C57.4261 8.11433 57.3942 7.9088 57.3942 7.68732ZM58.2051 7.62819V7.68732C58.2051 7.81495 58.2163 7.93414 58.2389 8.04488C58.2614 8.15562 58.297 8.25322 58.3458 8.33769C58.3965 8.42027 58.4622 8.48503 58.5429 8.53195C58.6236 8.57888 58.7222 8.60234 58.8385 8.60234C58.9512 8.60234 59.0478 8.57888 59.1285 8.53195C59.2092 8.48503 59.274 8.42027 59.3228 8.33769C59.3716 8.25322 59.4073 8.15562 59.4298 8.04488C59.4542 7.93414 59.4664 7.81495 59.4664 7.68732V7.62819C59.4664 7.50431 59.4542 7.38794 59.4298 7.27908C59.4073 7.16834 59.3707 7.07073 59.32 6.98627C59.2712 6.89993 59.2064 6.83236 59.1257 6.78356C59.045 6.73476 58.9474 6.71036 58.8329 6.71036C58.7184 6.71036 58.6208 6.73476 58.5401 6.78356C58.4613 6.83236 58.3965 6.89993 58.3458 6.98627C58.297 7.07073 58.2614 7.16834 58.2389 7.27908C58.2163 7.38794 58.2051 7.50431 58.2051 7.62819ZM61.5892 6.79764V9.1795H60.7784V6.13319H61.5414L61.5892 6.79764ZM62.5071 6.11348L62.493 6.86521C62.4536 6.85958 62.4057 6.85488 62.3494 6.85113C62.295 6.8455 62.2452 6.84268 62.2002 6.84268C62.0857 6.84268 61.9862 6.8577 61.9018 6.88773C61.8192 6.91588 61.7497 6.95812 61.6934 7.01443C61.639 7.07073 61.5977 7.13924 61.5695 7.21995C61.5433 7.30066 61.5282 7.39263 61.5245 7.49587L61.3612 7.44519C61.3612 7.24811 61.3809 7.06698 61.4203 6.90181C61.4597 6.73476 61.517 6.58929 61.5921 6.46541C61.669 6.34153 61.7629 6.24581 61.8736 6.17824C61.9843 6.11067 62.111 6.07688 62.2537 6.07688C62.2987 6.07688 62.3447 6.08063 62.3916 6.08814C62.4386 6.09377 62.477 6.10222 62.5071 6.11348ZM64.2358 9.23581C63.9993 9.23581 63.7872 9.19827 63.5995 9.1232C63.4118 9.04624 63.2522 8.94019 63.1208 8.80505C62.9913 8.66991 62.8919 8.51318 62.8224 8.33487C62.753 8.15468 62.7182 7.96323 62.7182 7.76052V7.6479C62.7182 7.41703 62.7511 7.20588 62.8168 7.01443C62.8825 6.82297 62.9763 6.65686 63.0983 6.51609C63.2222 6.37532 63.3724 6.26739 63.5488 6.19231C63.7252 6.11536 63.9242 6.07688 64.1457 6.07688C64.3615 6.07688 64.553 6.11254 64.72 6.18387C64.8871 6.25519 65.0269 6.35655 65.1395 6.48794C65.254 6.61932 65.3404 6.77699 65.3985 6.96093C65.4567 7.143 65.4858 7.34571 65.4858 7.56907V7.90692H63.0645V7.36636H64.6891V7.30442C64.6891 7.1918 64.6684 7.09138 64.6271 7.00316C64.5877 6.91307 64.5276 6.84174 64.4469 6.78919C64.3662 6.73663 64.263 6.71036 64.1372 6.71036C64.0302 6.71036 63.9383 6.73382 63.8613 6.78074C63.7844 6.82767 63.7215 6.89336 63.6727 6.97782C63.6258 7.06229 63.5901 7.16177 63.5657 7.27626C63.5432 7.38888 63.5319 7.51276 63.5319 7.6479V7.76052C63.5319 7.88252 63.5488 7.99514 63.5826 8.09837C63.6182 8.20161 63.668 8.29076 63.7318 8.36584C63.7975 8.44092 63.8763 8.4991 63.9683 8.5404C64.0621 8.58169 64.1682 8.60234 64.2864 8.60234C64.4328 8.60234 64.5689 8.57418 64.6947 8.51787C64.8223 8.45969 64.9321 8.37241 65.0241 8.25604L65.4183 8.68399C65.3544 8.77596 65.2672 8.86417 65.1564 8.94864C65.0476 9.0331 64.9162 9.10255 64.7623 9.15698C64.6083 9.20954 64.4328 9.23581 64.2358 9.23581Z" fill="#545BE8"/>
<path d="M15.2132 0.472778H0.867258C0.818545 0.472778 0.778992 0.512505 0.778992 0.561513V14.3604C0.778992 14.4094 0.818545 14.4491 0.867258 14.4491H15.2132C15.2619 14.4491 15.3012 14.4094 15.3012 14.3604V0.561513C15.3012 0.512505 15.2619 0.472778 15.2132 0.472778Z" fill="#545BE8"/>
<path d="M4.61714 3.54858V11.3733" stroke="white" stroke-width="1.26926"/>
<path d="M6.96184 3.54858V7.44616" stroke="white" stroke-width="1.26685"/>
<path d="M8.74799 3.54883V4.8727H10.9854L12.6084 8.22643H14.0698L11.7488 3.54883H8.74799Z" fill="white"/>
<path d="M9.41281 6.30743V11.5287" stroke="white" stroke-width="1.46628"/>
</g>
<defs>
<clipPath id="clip0_0_277">
<rect width="65.8976" height="14.0032" fill="white" transform="translate(0.778992 0.472778)"/>
</clipPath>
</defs>
</svg>
